<svg width="250" height="44" viewBox="0 0 250 44" fill="none" xmlns="http://www.w3.org/2000/svg">
<rect x="50.5" y="0.5" width="149" height="43" rx="3.5" fill="white"/>
<path d="M119.89 15H122.396V28.9825H119.89V15Z" fill="#191C1F"/>
<path d="M140.185 20.8909V18.7211H137.594V15.8921H135.088V26.2058C135.088 27.1534 135.326 27.8756 135.796 28.3524C136.266 28.8295 136.999 29.0714 137.973 29.0714H140.185V26.9016H138.567C138.214 26.9016 137.962 26.8242 137.815 26.6713C137.681 26.5314 137.594 26.178 137.594 25.7711V20.8909H140.185Z" fill="#191C1F"/>
<path d="M105.458 18.7208L102.867 26.2609L100.275 18.7208H97.6426L101.383 28.9826H104.35L108.091 18.7208H105.458Z" fill="#191C1F"/>
<path d="M131.003 23.8615C131.003 24.5112 130.905 25.0764 130.711 25.5413C130.518 26.0038 130.242 26.3584 129.89 26.5949C129.539 26.8314 129.106 26.9514 128.606 26.9514C127.889 26.9514 127.348 26.7158 126.999 26.2517C126.645 25.7826 126.466 25.0715 126.466 24.1385V18.7211H123.96V24.4155C123.96 25.3022 124.071 26.0543 124.29 26.6506C124.509 27.2487 124.81 27.7352 125.184 28.0964C125.558 28.4571 125.995 28.7177 126.482 28.8711C126.967 29.0237 127.488 29.101 128.032 29.101C128.816 29.101 129.464 28.9589 129.959 28.6786C130.411 28.4222 130.789 28.1224 131.085 27.7862L131.31 28.9825H133.509V18.7211H131.003L131.003 23.8615Z" fill="#191C1F"/>
<path fill-rule="evenodd" clip-rule="evenodd" d="M113.272 18.6025C114.331 18.6025 115.269 18.8243 116.059 19.2622C116.85 19.7008 117.473 20.3206 117.911 21.1041C118.349 21.8873 118.571 22.815 118.571 23.8615C118.571 24.8951 118.349 25.8164 117.911 26.5996C117.473 27.3829 116.85 28.0025 116.059 28.4411C115.269 28.879 114.331 29.1008 113.272 29.1008C112.225 29.1008 111.291 28.879 110.495 28.4412C109.697 28.0024 109.071 27.3827 108.633 26.5996C108.195 25.8168 107.973 24.8956 107.973 23.8615C107.973 22.8146 108.195 21.8869 108.633 21.1041C109.071 20.3207 109.698 19.7009 110.495 19.2621C111.291 18.8243 112.225 18.6025 113.272 18.6025ZM113.272 26.9906C113.839 26.9906 114.331 26.8572 114.735 26.5943C115.14 26.331 115.459 25.9593 115.685 25.4894C115.91 25.0179 116.025 24.4701 116.025 23.8615C116.025 23.2402 115.91 22.6894 115.685 22.2244C115.459 21.7609 115.14 21.3889 114.735 21.1188C114.331 20.8494 113.839 20.7127 113.272 20.7127C112.718 20.7127 112.229 20.8494 111.819 21.1191C111.407 21.389 111.085 21.7609 110.86 22.2243C110.634 22.6882 110.519 23.239 110.519 23.8616C110.519 24.4715 110.634 25.0192 110.86 25.4894C111.085 25.9592 111.407 26.3309 111.819 26.5942C112.229 26.8572 112.718 26.9906 113.272 26.9906Z" fill="#191C1F"/>
<path d="M78.9561 18.4509H76.3516V28.983H78.9561V18.4509Z" fill="#191C1F"/>
<path d="M83.0671 15.0001C85.3041 15.0001 87.124 16.8183 87.124 19.0531C87.124 21.202 85.4067 22.9949 83.2728 23.102L87.5101 28.983H84.4155L80.188 23.1181C80.1683 23.0907 80.1578 23.0582 80.1578 23.0242V21.0252C80.1578 20.9367 80.2298 20.8649 80.3182 20.8649H82.8099C83.2989 20.8649 83.7571 20.6723 84.1001 20.3229C84.4429 19.9736 84.6266 19.5117 84.6173 19.0222C84.5988 18.0447 83.7602 17.2493 82.7478 17.2493H76.3516V15.0001H83.0671Z" fill="#191C1F"/>
<path fill-rule="evenodd" clip-rule="evenodd" d="M95.1325 19.2025C94.3822 18.8043 93.4914 18.6025 92.4847 18.6025C91.4768 18.6025 90.5756 18.8244 89.8061 19.2625C89.0354 19.7009 88.429 20.3208 88.004 21.1047C87.5794 21.8868 87.3642 22.821 87.3642 23.8816C87.3642 24.9152 87.5827 25.8362 88.0139 26.619C88.4462 27.4037 89.0695 28.0202 89.8665 28.4513C90.662 28.8824 91.6161 29.101 92.7023 29.101C93.5639 29.101 94.3377 28.9395 95.0021 28.6209C95.6667 28.3015 96.2092 27.8665 96.6148 27.328C97 26.8162 97.2599 26.2373 97.387 25.6075L97.4007 25.5404H94.9084L94.8967 25.5807C94.7595 26.0504 94.4932 26.4215 94.1051 26.684C93.6885 26.9663 93.1768 27.1095 92.584 27.1095C92.0815 27.1095 91.6278 27.0018 91.2353 26.7895C90.8449 26.5784 90.5395 26.2766 90.3281 25.892C90.1158 25.5061 89.9949 25.0418 89.9691 24.5148V24.4324H97.4974L97.5058 24.3864C97.532 24.2419 97.5489 24.0931 97.5562 23.9434C97.5625 23.7975 97.566 23.6519 97.566 23.5048C97.5526 22.5106 97.3304 21.636 96.9056 20.9053C96.4792 20.1736 95.8826 19.6007 95.1325 19.2025ZM94.2193 21.135C94.6475 21.4953 94.9138 22.0074 95.0116 22.658H90.0556C90.1123 22.2359 90.2525 21.8703 90.4726 21.5704C90.7036 21.2558 90.9995 21.0086 91.3523 20.8357C91.7054 20.6622 92.0931 20.5742 92.5045 20.5742C93.1999 20.5742 93.7768 20.7629 94.2193 21.135Z" fill="#191C1F"/>
<path fill-rule="evenodd" clip-rule="evenodd" d="M150.048 23.781C152.755 23.781 154.534 22.1371 154.534 19.604C154.534 17.0708 152.755 15.4465 150.048 15.4465H144.846V28.9825H146.529V23.781H150.048ZM152.813 19.604C152.813 21.2091 151.673 22.2339 149.893 22.2339H146.529V16.9936H149.913C151.692 16.9936 152.813 17.9992 152.813 19.604Z" fill="#191C1F"/>
<path fill-rule="evenodd" clip-rule="evenodd" d="M154.961 26.2174C154.961 24.245 156.333 23.1427 158.925 23.1427H161.825V22.4659C161.825 21.1896 160.916 20.4163 159.369 20.4163C157.977 20.4163 157.049 21.0736 156.855 22.0791H155.27C155.502 20.1455 157.068 19.0047 159.447 19.0047C161.96 19.0047 163.411 20.2615 163.411 22.5627V28.9825H162.038L161.902 27.4357C161.284 28.325 160.298 29.0985 158.596 29.0985C156.43 29.0985 154.961 28.0157 154.961 26.2174ZM158.712 27.745C160.684 27.745 161.825 26.6042 161.825 24.9606V24.477H158.77C157.358 24.477 156.565 24.999 156.565 26.1206C156.565 27.0874 157.397 27.745 158.712 27.745Z" fill="#191C1F"/>
<path d="M168.98 26.9909L165.944 19.1207L164.262 19.1207L168.11 29.0406L167.627 30.2394C167.259 31.1677 167.105 31.3997 166.196 31.3997H164.784V32.85H166.679C168.071 32.85 168.439 32.2312 169.058 30.6457L173.602 19.1207H171.92L168.98 26.9909Z" fill="#191C1F"/>
<rect x="50.5" y="0.5" width="149" height="43" rx="3.5" stroke="#191C1F"/>
</svg>
