<svg fill="none" height="44" viewBox="0 0 250 44" width="250" xmlns="http://www.w3.org/2000/svg"><rect fill="#191c1f" height="44" rx="4" width="250"/><g fill="#fff"><path d="m119.89 15h2.506v13.9825h-2.506z"/><path d="m140.185 20.8909v-2.1698h-2.591v-2.829h-2.506v10.3137c0 .9476.238 1.6698.708 2.1466.47.4771 1.203.719 2.177.719h2.212v-2.1698h-1.618c-.353 0-.605-.0774-.752-.2303-.134-.1399-.221-.4933-.221-.9002v-4.8802z"/><path d="m105.458 18.7208-2.591 7.5401-2.592-7.5401h-2.6324l3.7404 10.2619h2.967l3.741-10.2619z"/><path d="m131.003 23.8615c0 .6497-.098 1.2149-.292 1.6799-.193.4625-.469.817-.821 1.0535-.351.2365-.784.3565-1.284.3565-.717 0-1.258-.2356-1.607-.6997-.354-.4691-.533-1.1802-.533-2.1132v-5.4174h-2.506v5.6944c0 .8867.111 1.6388.33 2.2351.219.5981.52 1.0846.894 1.4458.374.3608.811.6213 1.298.7747.485.1526 1.006.2299 1.55.2299.784 0 1.432-.1421 1.927-.4224.452-.2564.83-.5562 1.126-.8924l.225 1.1963h2.199v-10.2614h-2.506z"/><path clip-rule="evenodd" d="m113.272 18.6025c1.059 0 1.997.2218 2.787.6597.791.4386 1.414 1.0584 1.852 1.8419.438.7832.66 1.7109.66 2.7574 0 1.0336-.222 1.9549-.66 2.7381-.438.7833-1.061 1.4029-1.852 1.8415-.79.4379-1.728.6597-2.787.6597-1.047 0-1.981-.2218-2.777-.6596-.798-.4388-1.424-1.0585-1.862-1.8416-.438-.7828-.66-1.704-.66-2.7381 0-1.0469.222-1.9746.66-2.7574.438-.7834 1.065-1.4032 1.862-1.842.796-.4378 1.73-.6596 2.777-.6596zm0 8.3881c.567 0 1.059-.1334 1.463-.3963.405-.2633.724-.635.95-1.1049.225-.4715.34-1.0193.34-1.6279 0-.6213-.115-1.1721-.34-1.6371-.226-.4635-.545-.8355-.95-1.1056-.404-.2694-.896-.4061-1.463-.4061-.554 0-1.043.1367-1.453.4064-.412.2699-.734.6418-.959 1.1052-.226.4639-.341 1.0147-.341 1.6373 0 .6099.115 1.1576.341 1.6278.225.4698.547.8415.959 1.1048.41.263.899.3964 1.453.3964z" fill-rule="evenodd"/><path d="m78.9561 18.4509h-2.6045v10.5321h2.6045z"/><path d="m83.0671 15.0001c2.237 0 4.0569 1.8182 4.0569 4.053 0 2.1489-1.7173 3.9418-3.8512 4.0489l4.2373 5.881h-3.0946l-4.2275-5.8649c-.0197-.0274-.0302-.0599-.0302-.0939v-1.999c0-.0885.072-.1603.1604-.1603h2.4917c.489 0 .9472-.1926 1.2902-.542.3428-.3493.5265-.8112.5172-1.3007-.0185-.9775-.8571-1.7729-1.8695-1.7729h-6.3962v-2.2492z"/><path clip-rule="evenodd" d="m95.1325 19.2025c-.7503-.3982-1.6411-.6-2.6478-.6-1.0079 0-1.9091.2219-2.6786.66-.7707.4384-1.3771 1.0583-1.8021 1.8422-.4246.7821-.6398 1.7163-.6398 2.7769 0 1.0336.2185 1.9546.6497 2.7374.4323.7847 1.0556 1.4012 1.8526 1.8323.7955.4311 1.7496.6497 2.8358.6497.8616 0 1.6354-.1615 2.2998-.4801.6646-.3194 1.2071-.7544 1.6127-1.2929.3852-.5118.6451-1.0907.7722-1.7205l.0137-.0671h-2.4923l-.0117.0403c-.1372.4697-.4035.8408-.7916 1.1033-.4166.2823-.9283.4255-1.5211.4255-.5025 0-.9562-.1077-1.3487-.32-.3904-.2111-.6958-.5129-.9072-.8975-.2123-.3859-.3332-.8502-.359-1.3772v-.0824h7.5283l.0084-.046c.0262-.1445.0431-.2933.0504-.443.0063-.1459.0098-.2915.0098-.4386-.0134-.9942-.2356-1.8688-.6604-2.5995-.4264-.7317-1.023-1.3046-1.7731-1.7028zm-.9132 1.9325c.4282.3603.6945.8724.7923 1.523h-4.956c.0567-.4221.1969-.7877.417-1.0876.231-.3146.5269-.5618.8797-.7347.3531-.1735.7408-.2615 1.1522-.2615.6954 0 1.2723.1887 1.7148.5608z" fill-rule="evenodd"/><path clip-rule="evenodd" d="m150.048 23.781c2.707 0 4.486-1.6439 4.486-4.177 0-2.5332-1.779-4.1575-4.486-4.1575h-5.202v13.536h1.683v-5.2015zm2.765-4.177c0 1.6051-1.14 2.6299-2.92 2.6299h-3.364v-5.2403h3.384c1.779 0 2.9 1.0055 2.9 2.6104z" fill-rule="evenodd"/><path clip-rule="evenodd" d="m154.961 26.2174c0-1.9724 1.372-3.0747 3.964-3.0747h2.9v-.6768c0-1.2763-.909-2.0496-2.456-2.0496-1.392 0-2.32.6573-2.514 1.6628h-1.585c.232-1.9336 1.798-3.0744 4.177-3.0744 2.513 0 3.964 1.2568 3.964 3.558v6.4198h-1.373l-.136-1.5468c-.618.8893-1.604 1.6628-3.306 1.6628-2.166 0-3.635-1.0828-3.635-2.8811zm3.751 1.5276c1.972 0 3.113-1.1409 3.113-2.7845v-.4835h-3.055c-1.412 0-2.205.522-2.205 1.6436 0 .9668.832 1.6244 2.147 1.6244z" fill-rule="evenodd"/><path d="m168.98 26.9909-3.036-7.8702h-1.682l3.848 9.9198-.483 1.1988c-.368.9284-.522 1.1604-1.431 1.1604h-1.412v1.4503h1.895c1.392 0 1.76-.6188 2.379-2.2044l4.544-11.5249h-1.682z"/></g></svg>