<svg width="200" height="44" viewBox="0 0 200 44" fill="none" xmlns="http://www.w3.org/2000/svg">
<rect width="200" height="44" rx="4" fill="#191C1F"/>
<path d="M94.8901 15H97.3964V28.9825H94.8901V15Z" fill="white"/>
<path d="M115.185 20.8909V18.7211H112.594V15.8921H110.088V26.2058C110.088 27.1534 110.326 27.8756 110.796 28.3524C111.266 28.8295 111.999 29.0714 112.973 29.0714H115.185V26.9016H113.567C113.214 26.9016 112.962 26.8242 112.815 26.6713C112.681 26.5314 112.594 26.178 112.594 25.7711V20.8909H115.185Z" fill="white"/>
<path d="M80.4579 18.7208L77.8667 26.2609L75.2754 18.7208H72.6426L76.3833 28.9827H79.3501L83.0908 18.7208H80.4579Z" fill="white"/>
<path d="M106.003 23.8615C106.003 24.5112 105.905 25.0764 105.711 25.5414C105.518 26.0039 105.242 26.3584 104.89 26.5949C104.539 26.8314 104.106 26.9514 103.606 26.9514C102.889 26.9514 102.348 26.7158 101.999 26.2517C101.645 25.7826 101.466 25.0715 101.466 24.1385V18.7211H98.96V24.4155C98.96 25.3022 99.0709 26.0543 99.2898 26.6506C99.5088 27.2487 99.8096 27.7352 100.184 28.0964C100.558 28.4572 100.995 28.7177 101.482 28.8711C101.967 29.0237 102.488 29.101 103.032 29.101C103.816 29.101 104.464 28.9589 104.959 28.6786C105.411 28.4222 105.789 28.1224 106.085 27.7862L106.31 28.9825H108.509V18.7211H106.003L106.003 23.8615Z" fill="white"/>
<path fill-rule="evenodd" clip-rule="evenodd" d="M88.272 18.6025C89.3314 18.6025 90.2693 18.8243 91.0591 19.2622C91.8496 19.7008 92.4725 20.3206 92.911 21.1041C93.3487 21.8873 93.5707 22.815 93.5707 23.8615C93.5707 24.8951 93.3487 25.8164 92.911 26.5996C92.4728 27.3829 91.8497 28.0025 91.0591 28.4411C90.2693 28.879 89.3314 29.1008 88.272 29.1008C87.2255 29.1008 86.2911 28.879 85.4948 28.4412C84.6974 28.0024 84.0708 27.3827 83.6328 26.5996C83.1952 25.8168 82.9734 24.8956 82.9734 23.8615C82.9734 22.8146 83.1952 21.8869 83.6328 21.1041C84.0711 20.3207 84.6975 19.7009 85.4948 19.2621C86.2911 18.8243 87.2255 18.6025 88.272 18.6025ZM88.2721 26.9906C88.8391 26.9906 89.3313 26.8572 89.735 26.5943C90.1398 26.331 90.4592 25.9593 90.6846 25.4894C90.9105 25.0179 91.0251 24.4701 91.0251 23.8615C91.0251 23.2402 90.9105 22.6894 90.6846 22.2244C90.4592 21.7609 90.1396 21.3889 89.7346 21.1188C89.3308 20.8494 88.8388 20.7127 88.2721 20.7127C87.7184 20.7127 87.2295 20.8494 86.8191 21.1191C86.4075 21.389 86.0848 21.7609 85.8599 22.2243C85.6337 22.6882 85.5191 23.239 85.5191 23.8616C85.5191 24.4715 85.6339 25.0192 85.8599 25.4894C86.0849 25.9592 86.4074 26.3309 86.8186 26.5942C87.2291 26.8572 87.7181 26.9906 88.2721 26.9906Z" fill="white"/>
<path d="M53.9561 18.4509H51.3516V28.983H53.9561V18.4509Z" fill="white"/>
<path d="M58.0671 15.0001C60.3041 15.0001 62.124 16.8183 62.124 19.0531C62.124 21.202 60.4067 22.9949 58.2728 23.102L62.5101 28.983H59.4155L55.188 23.1181C55.1683 23.0907 55.1578 23.0582 55.1578 23.0242V21.0252C55.1578 20.9367 55.2298 20.8649 55.3182 20.8649H57.8099C58.2989 20.8649 58.7571 20.6723 59.1001 20.3229C59.4429 19.9736 59.6266 19.5117 59.6173 19.0222C59.5988 18.0447 58.7602 17.2493 57.7478 17.2493H51.3516V15.0001H58.0671Z" fill="white"/>
<path fill-rule="evenodd" clip-rule="evenodd" d="M70.1325 19.2025C69.3822 18.8043 68.4914 18.6025 67.4847 18.6025C66.4768 18.6025 65.5756 18.8244 64.8061 19.2625C64.0354 19.7009 63.429 20.3208 63.004 21.1047C62.5794 21.8868 62.3642 22.821 62.3642 23.8816C62.3642 24.9152 62.5827 25.8362 63.0139 26.619C63.4462 27.4037 64.0695 28.0202 64.8665 28.4513C65.662 28.8824 66.6161 29.101 67.7023 29.101C68.5639 29.101 69.3377 28.9395 70.0021 28.6209C70.6667 28.3015 71.2092 27.8665 71.6148 27.328C72 26.8162 72.2599 26.2373 72.387 25.6075L72.4007 25.5404H69.9084L69.8967 25.5807C69.7595 26.0504 69.4932 26.4215 69.1051 26.684C68.6885 26.9663 68.1768 27.1095 67.584 27.1095C67.0815 27.1095 66.6278 27.0018 66.2353 26.7895C65.8449 26.5784 65.5395 26.2766 65.3281 25.892C65.1158 25.5061 64.9949 25.0418 64.9691 24.5148V24.4324H72.4974L72.5058 24.3864C72.532 24.2419 72.5489 24.0931 72.5562 23.9434C72.5625 23.7975 72.566 23.6519 72.566 23.5048C72.5526 22.5106 72.3304 21.636 71.9056 20.9053C71.4792 20.1736 70.8826 19.6007 70.1325 19.2025ZM69.2193 21.135C69.6475 21.4953 69.9138 22.0074 70.0116 22.658H65.0556C65.1123 22.2359 65.2525 21.8703 65.4726 21.5704C65.7036 21.2558 65.9995 21.0086 66.3523 20.8357C66.7054 20.6622 67.0931 20.5742 67.5045 20.5742C68.1999 20.5742 68.7768 20.7629 69.2193 21.135Z" fill="white"/>
<path fill-rule="evenodd" clip-rule="evenodd" d="M125.048 23.781C127.755 23.781 129.534 22.1371 129.534 19.604C129.534 17.0708 127.755 15.4465 125.048 15.4465H119.846V28.9825H121.529V23.781H125.048ZM127.813 19.604C127.813 21.2091 126.673 22.2339 124.893 22.2339H121.529V16.9936H124.913C126.692 16.9936 127.813 17.9991 127.813 19.604Z" fill="white"/>
<path fill-rule="evenodd" clip-rule="evenodd" d="M129.961 26.2174C129.961 24.245 131.333 23.1427 133.925 23.1427H136.825V22.4659C136.825 21.1896 135.916 20.4163 134.369 20.4163C132.977 20.4163 132.049 21.0736 131.855 22.0791H130.27C130.502 20.1455 132.068 19.0047 134.447 19.0047C136.96 19.0047 138.411 20.2615 138.411 22.5627V28.9825H137.038L136.902 27.4357C136.284 28.325 135.298 29.0985 133.596 29.0985C131.43 29.0985 129.961 28.0157 129.961 26.2174ZM133.712 27.745C135.684 27.745 136.825 26.6041 136.825 24.9605V24.477H133.77C132.358 24.477 131.565 24.999 131.565 26.1206C131.565 27.0874 132.397 27.745 133.712 27.745Z" fill="white"/>
<path d="M143.98 26.9909L140.944 19.1207L139.262 19.1207L143.11 29.0405L142.627 30.2393C142.259 31.1677 142.105 31.3997 141.196 31.3997H139.784V32.85H141.679C143.071 32.85 143.439 32.2312 144.058 30.6456L148.602 19.1207H146.92L143.98 26.9909Z" fill="white"/>
</svg>
