<svg width="150" height="44" viewBox="0 0 150 44" fill="none" xmlns="http://www.w3.org/2000/svg">
<rect width="150" height="44" rx="4" fill="#191C1F"/>
<path d="M69.8901 15H72.3964V28.9825H69.8901V15Z" fill="white"/>
<path d="M90.1854 20.8909V18.7211H87.594V15.8921H85.0878V26.2058C85.0878 27.1534 85.3261 27.8756 85.7963 28.3524C86.2663 28.8295 86.9986 29.0714 87.973 29.0714H90.1854V26.9016H88.5666C88.2144 26.9016 87.9617 26.8242 87.8155 26.6713C87.6811 26.5314 87.594 26.178 87.594 25.7711V20.8909H90.1854Z" fill="white"/>
<path d="M55.4579 18.7208L52.8667 26.2609L50.2754 18.7208H47.6426L51.3833 28.9827H54.3501L58.0908 18.7208H55.4579Z" fill="white"/>
<path d="M81.003 23.8615C81.003 24.5112 80.9046 25.0764 80.7105 25.5414C80.5178 26.0039 80.242 26.3584 79.8903 26.5949C79.5387 26.8314 79.1063 26.9514 78.6057 26.9514C77.8891 26.9514 77.3484 26.7158 76.9987 26.2517C76.6454 25.7826 76.4663 25.0715 76.4663 24.1385V18.7211H73.96V24.4155C73.96 25.3022 74.0709 26.0543 74.2898 26.6506C74.5088 27.2487 74.8096 27.7352 75.1839 28.0964C75.5579 28.4572 75.9946 28.7177 76.482 28.8711C76.9669 29.0237 77.4883 29.101 78.0321 29.101C78.8158 29.101 79.4643 28.9589 79.9591 28.6786C80.4106 28.4222 80.7887 28.1224 81.0851 27.7862L81.3096 28.9825H83.5092V18.7211H81.003L81.003 23.8615Z" fill="white"/>
<path fill-rule="evenodd" clip-rule="evenodd" d="M63.272 18.6025C64.3314 18.6025 65.2693 18.8243 66.0591 19.2622C66.8496 19.7008 67.4725 20.3206 67.911 21.1041C68.3487 21.8873 68.5707 22.815 68.5707 23.8615C68.5707 24.8951 68.3487 25.8164 67.911 26.5996C67.4728 27.3829 66.8497 28.0025 66.0591 28.4411C65.2693 28.879 64.3314 29.1008 63.272 29.1008C62.2255 29.1008 61.2911 28.879 60.4948 28.4412C59.6974 28.0024 59.0708 27.3827 58.6328 26.5996C58.1952 25.8168 57.9734 24.8956 57.9734 23.8615C57.9734 22.8146 58.1952 21.8869 58.6328 21.1041C59.0711 20.3207 59.6975 19.7009 60.4948 19.2621C61.2911 18.8243 62.2255 18.6025 63.272 18.6025ZM63.2721 26.9906C63.8391 26.9906 64.3313 26.8572 64.735 26.5943C65.1398 26.331 65.4592 25.9593 65.6846 25.4894C65.9105 25.0179 66.0251 24.4701 66.0251 23.8615C66.0251 23.2402 65.9105 22.6894 65.6846 22.2244C65.4592 21.7609 65.1396 21.3889 64.7346 21.1188C64.3308 20.8494 63.8388 20.7127 63.2721 20.7127C62.7184 20.7127 62.2295 20.8494 61.8191 21.1191C61.4075 21.389 61.0848 21.7609 60.8599 22.2243C60.6337 22.6882 60.5191 23.239 60.5191 23.8616C60.5191 24.4715 60.6339 25.0192 60.8599 25.4894C61.0849 25.9592 61.4074 26.3309 61.8186 26.5942C62.2291 26.8572 62.7181 26.9906 63.2721 26.9906Z" fill="white"/>
<path d="M28.9561 18.4509H26.3516V28.983H28.9561V18.4509Z" fill="white"/>
<path d="M33.0671 15.0001C35.3041 15.0001 37.124 16.8183 37.124 19.0531C37.124 21.202 35.4067 22.9949 33.2728 23.102L37.5101 28.983H34.4155L30.188 23.1181C30.1683 23.0907 30.1578 23.0582 30.1578 23.0242V21.0252C30.1578 20.9367 30.2298 20.8649 30.3182 20.8649H32.8099C33.2989 20.8649 33.7571 20.6723 34.1001 20.3229C34.4429 19.9736 34.6266 19.5117 34.6173 19.0222C34.5988 18.0447 33.7602 17.2493 32.7478 17.2493H26.3516V15.0001H33.0671Z" fill="white"/>
<path fill-rule="evenodd" clip-rule="evenodd" d="M45.1325 19.2025C44.3822 18.8043 43.4914 18.6025 42.4847 18.6025C41.4768 18.6025 40.5756 18.8244 39.8061 19.2625C39.0354 19.7009 38.429 20.3208 38.004 21.1047C37.5794 21.8868 37.3642 22.821 37.3642 23.8816C37.3642 24.9152 37.5827 25.8362 38.0139 26.619C38.4462 27.4037 39.0695 28.0202 39.8665 28.4513C40.662 28.8824 41.6161 29.101 42.7023 29.101C43.5639 29.101 44.3377 28.9395 45.0021 28.6209C45.6667 28.3015 46.2092 27.8665 46.6148 27.328C47 26.8162 47.2599 26.2373 47.387 25.6075L47.4007 25.5404H44.9084L44.8967 25.5807C44.7595 26.0504 44.4932 26.4215 44.1051 26.684C43.6885 26.9663 43.1768 27.1095 42.584 27.1095C42.0815 27.1095 41.6278 27.0018 41.2353 26.7895C40.8449 26.5784 40.5395 26.2766 40.3281 25.892C40.1158 25.5061 39.9949 25.0418 39.9691 24.5148V24.4324H47.4974L47.5058 24.3864C47.532 24.2419 47.5489 24.0931 47.5562 23.9434C47.5625 23.7975 47.566 23.6519 47.566 23.5048C47.5526 22.5106 47.3304 21.636 46.9056 20.9053C46.4792 20.1736 45.8826 19.6007 45.1325 19.2025ZM44.2193 21.135C44.6475 21.4953 44.9138 22.0074 45.0116 22.658H40.0556C40.1123 22.2359 40.2525 21.8703 40.4726 21.5704C40.7036 21.2558 40.9995 21.0086 41.3523 20.8357C41.7054 20.6622 42.0931 20.5742 42.5045 20.5742C43.1999 20.5742 43.7768 20.7629 44.2193 21.135Z" fill="white"/>
<path fill-rule="evenodd" clip-rule="evenodd" d="M100.048 23.781C102.755 23.781 104.534 22.1371 104.534 19.604C104.534 17.0708 102.755 15.4465 100.048 15.4465H94.8464V28.9825H96.5288V23.781H100.048ZM102.813 19.604C102.813 21.2091 101.673 22.2339 99.8935 22.2339H96.5288V16.9936H99.9127C101.692 16.9936 102.813 17.9991 102.813 19.604Z" fill="white"/>
<path fill-rule="evenodd" clip-rule="evenodd" d="M104.961 26.2174C104.961 24.245 106.333 23.1427 108.925 23.1427H111.825V22.4659C111.825 21.1896 110.916 20.4163 109.369 20.4163C107.977 20.4163 107.049 21.0736 106.855 22.0791H105.27C105.502 20.1455 107.068 19.0047 109.447 19.0047C111.96 19.0047 113.411 20.2615 113.411 22.5627V28.9825H112.038L111.902 27.4357C111.284 28.325 110.298 29.0985 108.596 29.0985C106.43 29.0985 104.961 28.0157 104.961 26.2174ZM108.712 27.745C110.684 27.745 111.825 26.6041 111.825 24.9605V24.477H108.77C107.358 24.477 106.565 24.999 106.565 26.1206C106.565 27.0874 107.397 27.745 108.712 27.745Z" fill="white"/>
<path d="M118.98 26.9909L115.944 19.1207L114.262 19.1207L118.11 29.0405L117.627 30.2393C117.259 31.1677 117.105 31.3997 116.196 31.3997H114.784V32.85H116.679C118.071 32.85 118.439 32.2312 119.058 30.6456L123.602 19.1207H121.92L118.98 26.9909Z" fill="white"/>
</svg>
