<svg fill="none" height="1000" viewBox="0 0 5449 1000" width="5449" xmlns="http://www.w3.org/2000/svg" xmlns:xlink="http://www.w3.org/1999/xlink"><clipPath id="a"><path d="m0 0h5448.2v1000h-5448.2z"/></clipPath><g clip-path="url(#a)" fill="#fff"><path d="m3576.13 330.021v-121.558h-145.18v-158.4864h-140.4v577.7984c0 53.09 13.35 93.549 39.69 120.257 26.33 26.731 67.35 40.282 121.94 40.282h123.95v-121.558h-90.69c-19.73 0-33.89-4.336-42.08-12.901-7.53-7.836-12.41-27.637-12.41-50.434v-273.4z"/><path d="m1630.61 208.448-145.17 422.417-145.17-422.417h-147.5l209.57 574.894h166.2l209.57-574.894z"/><path d="m2579.54 0h-140.4v783.334h140.4z"/><path d="m3061.71 496.445c0 36.395-5.52 68.058-16.39 94.107-10.79 25.91-26.25 45.772-45.95 59.021s-43.92 19.971-71.97 19.971c-40.14 0-70.43-13.195-90.02-39.198-19.79-26.281-29.83-66.114-29.83-118.383v-303.5h-140.41v319.018c0 49.675 6.21 91.807 18.48 125.213 12.27 33.506 29.12 60.763 50.09 80.997 20.95 20.211 45.42 34.807 72.72 43.402 27.17 8.549 56.38 12.878 86.84 12.878 43.9 0 80.24-7.96 107.96-23.664 25.29-14.364 46.48-31.16 63.08-49.992l12.57 67.02h123.23v-574.872h-140.4z"/><path d="m2224.51 238.779c-44.25-24.531-96.78-36.96-156.14-36.96-58.62 0-110.97 12.428-155.58 36.952-44.67 24.586-79.76 59.308-104.31 103.198-24.52 43.852-36.95 95.826-36.95 154.475 0 57.929 12.43 109.54 36.95 153.391 24.53 43.875 59.64 78.589 104.31 103.175 44.61 24.524 96.96 36.952 155.58 36.952 59.36 0 111.9-12.428 156.14-36.96 44.29-24.57 79.2-59.284 103.75-103.167 24.52-43.875 36.96-95.485 36.96-153.391 0-58.626-12.44-110.601-36.96-154.475-24.56-43.898-59.46-78.62-103.75-103.19zm-74.17 410.763c-22.62 14.728-50.2 22.201-81.96 22.201-31.04 0-58.43-7.472-81.43-22.208-23.04-14.751-41.1-35.574-53.71-61.894-12.66-26.343-19.09-57.023-19.09-91.195 0-34.877 6.42-65.735 19.09-91.722 12.6-25.964 30.68-46.794 53.74-61.917 22.99-15.108 50.38-22.766 81.4-22.766 31.75 0 59.31 7.658 81.93 22.75 22.69 15.131 40.6 35.969 53.22 61.94 12.66 26.049 19.08 56.907 19.08 91.714 0 34.095-6.42 64.782-19.08 91.195-12.63 26.328-30.52 47.151-53.19 61.902z"/><path d="m145.915 193.33h-145.915v590.033h145.915z"/><path d="m603.499 227.069c0-125.2-101.954-227.0611875-227.278-227.0611875h-376.221v126.0061875h358.333c56.715 0 103.696 44.557 104.734 99.321.519 27.421-9.773 53.3-28.977 72.868-19.212 19.576-44.883 30.363-72.28 30.363h-139.588c-4.956 0-8.99 4.027-8.99 8.983v111.99c0 1.905.589 3.725 1.696 5.258l236.834 328.566h173.366l-237.384-329.465c119.547-6.001 215.755-106.445 215.755-226.829z"/><path d="m1052.16 235.434c-42.04-22.309-91.944-33.615-148.34-33.615-56.466 0-106.953 12.436-150.062 36.975-43.178 24.562-77.149 59.292-100.96 103.206-23.788 43.813-35.845 96.151-35.845 155.567 0 57.906 12.243 109.501 36.402 153.36 24.214 43.96 59.137 78.496 103.786 102.648 44.564 24.152 98.017 36.395 158.866 36.395 48.273 0 91.623-9.044 128.843-26.893 37.23-17.895 67.63-42.264 90.35-72.433 21.58-28.674 36.13-61.104 43.26-96.384l.77-3.763h-139.63l-.66 2.261c-7.68 26.312-22.6 47.104-44.343 61.809-23.339 15.812-52.005 23.835-85.217 23.835-28.148 0-53.57-6.032-75.554-17.926-21.875-11.824-38.981-28.736-50.828-50.279-11.894-21.62-18.662-47.63-20.11-77.156v-4.615h421.752l.47-2.579c1.47-8.092 2.42-16.432 2.83-24.818.35-8.169.55-16.331.55-24.57-.75-55.699-13.21-104.692-37-145.632-23.89-40.987-57.31-73.084-99.33-95.393zm-51.17 108.262c23.99 20.187 38.91 48.877 44.39 85.326h-277.645c3.175-23.649 11.027-44.13 23.362-60.934 12.939-17.624 29.518-31.47 49.28-41.157 19.785-9.718 41.505-14.651 64.55-14.651 38.958.001 71.279 10.571 96.063 31.416z"/><path d="m4380 257.926c0 141.913-99.67 234.006-251.34 234.006h-197.16v291.403h-94.25v-758.3223h291.41c151.67 0 251.34 91.0003 251.34 232.9133zm-260.01 147.333c99.67 0 163.59-57.412 163.59-147.334 0-89.906-62.84-146.24-162.51-146.24h-189.57v293.574z"/><path d="m4403.87 628.424c0-110.496 76.91-172.251 222.07-172.251h162.5v-37.915c0-71.503-50.91-114.824-137.58-114.824-78.01 0-130 36.822-140.84 93.156h-88.83c13-108.325 100.75-172.236 233.99-172.236 140.84 0 222.09 70.41 222.09 199.324v359.657h-76.91l-7.59-86.658c-34.67 49.82-89.91 93.156-185.25 93.156-121.32-.001-203.65-60.661-203.65-161.409zm210.15 85.579c110.5 0 174.42-63.912 174.42-155.99v-27.089h-171.17c-79.08 0-123.5 29.246-123.5 92.079 0 54.162 46.59 91 120.25 91z"/><path d="m5019.21 230.852 170.08 440.908 164.66-440.908h94.25l-254.58 645.654c-34.67 88.828-55.26 123.494-133.24 123.494h-106.17v-81.251h79.08c50.91 0 59.58-12.998 80.17-65.004l27.07-67.16-215.57-555.732z"/></g></svg>